<svg xmlns="http://www.w3.org/2000/svg" xmlns:xlink="http://www.w3.org/1999/xlink" width="120" height="91" viewBox="0 0 120 91"><defs><path id="8idib" d="M718.48 814.84a5.5 5.5 0 1 1-.31-1.8 2.52 2.52 0 0 1 3.61-.01 5.5 5.5 0 1 1-.25 1.05l-.02-.02a1.7 1.7 0 1 0-3.02-.06l-.07.08c.03.25.06.5.06.76m8.49-4.16a4.17 4.17 0 1 0 .02 8.34 4.17 4.17 0 0 0-.02-8.34m-18.16 4.17a4.17 4.17 0 1 0 8.34 0 4.17 4.17 0 0 0-8.34 0"/><path id="8idic" d="M719.96 821.38c.72 0 1.39-.35 1.79-.95a.33.33 0 1 0-.55-.37 1.48 1.48 0 0 1-2.47 0 .34.34 0 1 0-.55.37c.4.6 1.07.95 1.78.95"/><path id="8idid" d="M722.4 824c-.53.56-1.44.9-2.43.9-.99 0-1.9-.34-2.43-.9a.6.6 0 0 0-.87.82c.76.8 1.99 1.27 3.3 1.27 1.3 0 2.54-.48 3.3-1.27a.6.6 0 1 0-.87-.82"/><path id="8idia" d="M660 783.34h119.94v90.76H660z"/><path id="8idif" d="M777.38 787.67a2.56 2.56 0 0 1 2.56 2.56v9.11a2.56 2.56 0 0 1-5.12 0v-3.1h-3.57a5.4 5.4 0 0 1-2.81 3.18c.67 4.87 3.74 27.27 4.45 34.19.81 7.93-.58 10.12-5.17 12.68-2.71 1.51-15.73 2.97-26.88 3.98l.28.49c.43.74.87 1.52 1.3 2.34 3.5 6.75 2.23 11.47.55 14.25-2.83 4.66-8.5 6.75-11.64 6.75h-22.72c-3.13 0-8.81-2.1-11.64-6.75-1.68-2.78-2.96-7.5.55-14.25a64.07 64.07 0 0 1 1.58-2.83c-11.15-1-24.17-2.47-26.87-3.98-4.6-2.56-5.99-4.75-5.18-12.68.71-6.92 3.78-29.32 4.45-34.2a5.4 5.4 0 0 1-2.81-3.17h-3.57v3.1a2.56 2.56 0 0 1-5.12 0v-9.11a2.56 2.56 0 0 1 5.12 0v2.74h3.52a5.43 5.43 0 0 1 5.19-3.87h5.44a5.43 5.43 0 0 1 5.2 3.87h3.85v-2.74a2.56 2.56 0 0 1 5.11 0v9.11a2.56 2.56 0 0 1-5.11 0v-3.1h-3.91a5.47 5.47 0 0 1-2.73 3.14c.16 3.84.84 19.98 1.27 26.26.24 3.58-.2 6.29-.76 8.16.77-.39 1.6-.79 2.37-1.14a19.57 19.57 0 0 1 13.83-.94c-.7-1.43-1.1-3.04-1.1-4.7 0-.36 0-.68-.02-.99-.03-.6-.06-1.2.05-1.84-4.07-1.17-6.24-5.58-6.24-9.56 0-3.81 2.4-7.25 5.93-8.6v-3.86a1.17 1.17 0 0 1-.15-.38 10.49 10.49 0 0 1 12.75-12.15c2-3.86 5.95-6.3 10.36-6.3 4.43 0 8.4 2.45 10.38 6.33a10.47 10.47 0 0 1 13.08 9.96c0 .22-.06.42-.16.6v5.94a9.2 9.2 0 0 1 5.6 8.46c0 3.98-2.18 8.39-6.25 9.56.11.65.08 1.23.05 1.84-.01.31-.03.63-.03.99 0 1.66-.39 3.27-1.09 4.7a19.57 19.57 0 0 1 13.83.94 98 98 0 0 1 2.37 1.14c-.55-1.87-1-4.58-.76-8.16.43-6.28 1.11-22.42 1.27-26.26a5.47 5.47 0 0 1-2.73-3.14h-3.9v3.1a2.56 2.56 0 0 1-5.12 0v-9.11a2.56 2.56 0 0 1 5.11 0v2.74h3.85a5.43 5.43 0 0 1 5.2-3.87h5.44a5.43 5.43 0 0 1 5.2 3.87h3.51v-2.74a2.56 2.56 0 0 1 2.56-2.56zm-41.75 18.42c.18-.1.38-.17.6-.17h5.03v-5.1h-20l-.05.05c-1.43 1.68-3.39 3.99-7.37 3.99-4.05 0-5.93-2.25-7.31-3.9l-.12-.14h-7.22v.75c0 .22-.06.42-.17.6v3.75h4.7c.21 0 .41.07.59.17zm-30.74 10.27c0 5.38 2.9 10.39 7.57 13.08.18.1.32.24.42.41a15.23 15.23 0 0 0 14.17 0c.1-.17.24-.31.42-.41a15.13 15.13 0 0 0 7.57-13.08v-8.26H704.9zm15.09 17.26c-2.4 0-4.78-.5-6.97-1.47v4.74a6.97 6.97 0 0 0 13.93 0v-4.74a17.29 17.29 0 0 1-6.97 1.47zm26.55-18.99a6.85 6.85 0 0 0-4.31-6.36h-4.81v8.09c0 5.97-3.1 11.55-8.14 14.73v3.07l5.78.66a8.45 8.45 0 0 0 5.25-7.8c0-.42.02-.78.04-1.1.04-.92.06-1.37-.3-2.09a1.17 1.17 0 0 1 .93-1.7c3.61-.33 5.56-4.11 5.56-7.5zm-39.38-22.94a8.14 8.14 0 0 0-8.02 6.79h7.83c.33 0 .66.14.88.4l.49.57c1.26 1.5 2.56 3.06 5.5 3.06 2.9 0 4.28-1.6 5.6-3.16l.4-.47c.22-.26.55-.4.89-.4h20.25a8.17 8.17 0 0 0-10.85-6.28c-.6.22-1.26-.07-1.5-.66a9.29 9.29 0 0 0-8.65-5.85 9.3 9.3 0 0 0-8.64 5.8c-.23.58-.89.87-1.47.66a8.11 8.11 0 0 0-2.71-.46zm-13.73 22.94c0 3.39 1.95 7.17 5.56 7.5a1.17 1.17 0 0 1 .93 1.7c-.36.72-.34 1.17-.3 2.09.02.32.04.68.04 1.1 0 3.42 2.1 6.52 5.25 7.8l5.78-.66v-3.07a17.48 17.48 0 0 1-8.14-14.73v-8.09h-4.52c-.08 0-.16 0-.23-.02a6.9 6.9 0 0 0-4.37 6.38zm-20.05 29.61c1.85 1.04 11.9 2.45 26.95 3.78l.03-.07a30.1 30.1 0 0 0 .62-1.34l.02-.05c.92-2.2 1.7-5.05 2.05-9.4-3.92-4.08-11.5-5.14-17.5-2.37a145.68 145.68 0 0 0-5.18 2.57 1.17 1.17 0 0 1-1.49-1.73c.02-.03 2.19-3.2 1.74-9.83-.49-7.15-1.3-26.96-1.31-27.15-.02-.54.33-1.03.84-1.18a3.08 3.08 0 0 0-.87-6.02h-5.44a3.08 3.08 0 0 0-.75 6.05c.58.15.96.7.88 1.3-.04.27-3.78 27.35-4.57 35.05-.77 7.44.58 8.5 3.98 10.4zm67.6 21.89c1.99-3.29 1.78-7.3-.63-11.95-.4-.78-.84-1.53-1.26-2.26-.4-.68-.79-1.38-1.17-2.1v-.01l-.02-.03-.26-.5-.03-.05-.19-.39-.1-.22a19.7 19.7 0 0 1-.37-.8 25.3 25.3 0 0 1-1.41-4.19l-.08-.32a27.94 27.94 0 0 1-.22-1.02l-.05-.22-.12-.68-.03-.17-.15-.9-.01-.12c-.14-.95-.25-1.97-.33-3.08l-5.27-.6v.37a9.31 9.31 0 0 1-18.6 0v-.37l-5.27.6c-.08 1.11-.2 2.13-.33 3.08l-.01.11-.15.91c0 .06-.02.11-.03.17l-.12.68-.05.22a28.51 28.51 0 0 1-.22 1.02l-.08.32a30.14 30.14 0 0 1-.21.82 25.35 25.35 0 0 1-1.2 3.37l-.02.05a25.97 25.97 0 0 1-.34.75l-.11.22-.2.39-.02.06-.26.5-.01.02a69.8 69.8 0 0 1-1.18 2.11c-.42.73-.85 1.48-1.26 2.26-2.4 4.65-2.62 8.66-.62 11.95 2.33 3.84 7.12 5.63 9.63 5.63h22.72c2.5 0 7.3-1.8 9.63-5.63zm25.89-68.63a3.07 3.07 0 0 0-.75-6.05h-5.44a3.08 3.08 0 0 0-.87 6.02c.51.15.86.64.84 1.18 0 .2-.82 20-1.3 27.15-.46 6.72 1.7 9.8 1.73 9.83a1.17 1.17 0 0 1-1.5 1.73c-.02-.02-2.96-1.55-5.17-2.57-6-2.77-13.58-1.71-17.5 2.38.34 4.34 1.13 7.19 2.05 9.39l.02.05.4.9.07.13.15.31.03.07c15.05-1.33 25.1-2.74 26.95-3.78 3.4-1.89 4.75-2.95 3.98-10.4-.79-7.7-4.53-34.77-4.57-35.04-.08-.6.3-1.15.88-1.3z"/><clipPath id="8idie"><use xlink:href="#8idia"/></clipPath></defs><g><g transform="translate(-660 -783)"><g><use fill="#005686" xlink:href="#8idib"/></g><g><use fill="#005686" xlink:href="#8idic"/></g><g><use fill="#005686" xlink:href="#8idid"/></g><g><g/><g clip-path="url(#8idie)"><use fill="#005686" xlink:href="#8idif"/></g></g></g></g></svg>