<svg xmlns="http://www.w3.org/2000/svg" xmlns:xlink="http://www.w3.org/1999/xlink" width="114" height="60" viewBox="0 0 114 60"><defs><path id="m1dya" d="M71 62h114v60H71z"/><path id="m1dyc" d="M104.42 62H72.58c-.87 0-1.58.7-1.58 1.58v11.9c0 .86.7 1.57 1.58 1.57h6.98c.88 0 1.59.7 1.59 1.58v41.79c0 .87.7 1.58 1.58 1.58h11.54c.88 0 1.58-.7 1.58-1.58V78.63c0-.87.71-1.58 1.59-1.58h6.98c.87 0 1.58-.7 1.58-1.58V63.58c0-.87-.7-1.58-1.58-1.58"/><path id="m1dyd" d="M183.32 62h-31.64c-.93 0-1.68.75-1.68 1.68v11.7c0 .92.75 1.67 1.68 1.67h6.79c.92 0 1.68.75 1.68 1.68v41.6c0 .92.75 1.67 1.67 1.67h11.36c.92 0 1.67-.75 1.67-1.68v-41.6c0-.92.76-1.67 1.68-1.67h6.8c.92 0 1.67-.75 1.67-1.68v-11.7c0-.92-.75-1.67-1.68-1.67"/><path id="m1dye" d="M153.53 81.27h-7.2v-17.7c0-.86-.7-1.57-1.58-1.57h-11.62c-.88 0-1.59.7-1.59 1.58V83.4c0 .87-.7 1.58-1.59 1.58h-2.9c-.88 0-1.6-.71-1.6-1.58V63.58c0-.87-.7-1.58-1.58-1.58h-11.62c-.87 0-1.58.7-1.58 1.58v17.69h-7.2a2.46 2.46 0 0 0-2.47 2.45v16.47c0 1.36 1.1 2.46 2.47 2.46h7.2v17.77c0 .87.7 1.58 1.58 1.58h11.62c.88 0 1.59-.7 1.59-1.58V101.6c0-.87.7-1.58 1.59-1.58h2.9c.88 0 1.6.7 1.6 1.58v18.82c0 .87.7 1.58 1.58 1.58h11.62c.87 0 1.58-.7 1.58-1.58v-17.77h7.2c1.36 0 2.47-1.1 2.47-2.46V83.72c0-1.35-1.1-2.45-2.47-2.45zm1.32 18.92a1.31 1.31 0 0 1-.8 1.22 1.33 1.33 0 0 1-.53.1h-10.51c-.74 0-1.34-.58-1.34-1.32v-4.22h-26.35v4.22c0 .74-.6 1.33-1.34 1.33h-10.51a1.35 1.35 0 0 1-.52-.1 1.33 1.33 0 0 1-.81-1.23V83.72c0-.73.6-1.32 1.33-1.32h10.51c.74 0 1.34.59 1.34 1.32v5h26.35v-5c0-.73.6-1.32 1.34-1.32h10.51c.74 0 1.33.59 1.33 1.32z"/><clipPath id="m1dyb"><use xlink:href="#m1dya"/></clipPath></defs><g><g transform="translate(-71 -62)"><g/><g clip-path="url(#m1dyb)"><use fill="#fffffe" xlink:href="#m1dyc"/></g><g clip-path="url(#m1dyb)"><use fill="#fffffe" xlink:href="#m1dyd"/></g><g clip-path="url(#m1dyb)"><use fill="#fffffe" xlink:href="#m1dye"/></g></g></g></svg>