<svg xmlns="http://www.w3.org/2000/svg" xmlns:xlink="http://www.w3.org/1999/xlink" width="80" height="42" viewBox="0 0 80 42"><defs><path id="3hcda" d="M71 11h80v42H71z"/><path id="3hcdc" d="M94.45 11H72.11c-.61 0-1.11.5-1.11 1.1v8.33c0 .61.5 1.1 1.11 1.1h4.9c.61 0 1.1.5 1.1 1.11V51.9c0 .61.5 1.11 1.12 1.11h8.1c.62 0 1.11-.5 1.11-1.1V22.63c0-.6.5-1.1 1.11-1.1h4.9c.61 0 1.11-.5 1.11-1.11V12.1c0-.61-.5-1.11-1.1-1.11"/><path id="3hcdd" d="M149.82 11h-22.2c-.65 0-1.18.53-1.18 1.17v8.2c0 .64.53 1.17 1.18 1.17h4.76c.65 0 1.18.52 1.18 1.17v29.12c0 .64.53 1.17 1.18 1.17h7.97c.65 0 1.17-.53 1.17-1.17V22.7c0-.65.53-1.17 1.18-1.17h4.76c.65 0 1.18-.53 1.18-1.18v-8.19c0-.64-.53-1.17-1.18-1.17"/><path id="3hcde" d="M128.92 24.49h-5.06V12.1c0-.62-.5-1.11-1.11-1.11h-8.15c-.62 0-1.12.5-1.12 1.1V26c0 .6-.5 1.1-1.11 1.1h-2.04c-.62 0-1.12-.5-1.12-1.1V12.1c0-.62-.5-1.11-1.11-1.11h-8.15c-.62 0-1.12.5-1.12 1.1V24.5h-5.05c-.95 0-1.73.77-1.73 1.71v11.54c0 .94.78 1.71 1.73 1.71h5.05V51.9c0 .62.5 1.11 1.12 1.11h8.15c.61 0 1.11-.5 1.11-1.1V38.71c0-.61.5-1.1 1.12-1.1h2.04c.61 0 1.11.49 1.11 1.1v13.17c0 .62.5 1.11 1.12 1.11h8.15c.61 0 1.11-.5 1.11-1.1V39.44h5.06c.95 0 1.73-.77 1.73-1.71V26.2c0-.94-.78-1.71-1.73-1.71zm.93 13.24a.92.92 0 0 1-.57.85.94.94 0 0 1-.36.07h-7.39a.93.93 0 0 1-.93-.92v-2.96h-18.5v2.96c0 .5-.42.92-.94.92h-7.38a.95.95 0 0 1-.36-.07.93.93 0 0 1-.57-.85V26.2c0-.5.42-.92.93-.92h7.38c.52 0 .94.41.94.92v3.5h18.5v-3.5c0-.5.42-.92.93-.92h7.39c.51 0 .93.41.93.92z"/><clipPath id="3hcdb"><use xlink:href="#3hcda"/></clipPath></defs><g><g transform="translate(-71 -11)"><g><g/><g clip-path="url(#3hcdb)"><use fill="#005686" xlink:href="#3hcdc"/></g><g clip-path="url(#3hcdb)"><use fill="#005686" xlink:href="#3hcdd"/></g><g clip-path="url(#3hcdb)"><use fill="#005686" xlink:href="#3hcde"/></g></g></g></g></svg>