<svg xmlns="http://www.w3.org/2000/svg" xmlns:xlink="http://www.w3.org/1999/xlink" width="75" height="57" viewBox="0 0 75 57"><defs><path id="4rifb" d="M607.55 738.78a3.44 3.44 0 1 1-.2-1.13 1.57 1.57 0 0 1 2.26 0 3.44 3.44 0 1 1-.16.65v-.01c-.18-.37-.56-.6-.96-.6-.39 0-.75.21-.93.56l-.05.05c.02.16.04.32.04.48m5.3-2.6a2.6 2.6 0 1 0 0 5.21 2.6 2.6 0 0 0 0-5.21m-11.34 2.6a2.6 2.6 0 1 0 5.2 0 2.6 2.6 0 0 0-5.2 0"/><path id="4rifc" d="M608.48 742.86c.45 0 .87-.22 1.12-.6a.2.2 0 1 0-.35-.23.93.93 0 0 1-1.54 0 .2.2 0 1 0-.34.24c.25.37.66.59 1.11.59"/><path id="4rifd" d="M610 744.5c-.33.35-.9.56-1.52.56s-1.18-.21-1.52-.56a.37.37 0 0 0-.54.5c.47.5 1.24.8 2.06.8.82 0 1.59-.3 2.06-.8a.37.37 0 1 0-.54-.5"/><path id="4rifa" d="M571 719.08h74.96v56.73H571z"/><path id="4riff" d="M644.36 721.78c.88 0 1.6.72 1.6 1.6v5.7a1.6 1.6 0 0 1-3.2 0v-1.94h-2.23a3.38 3.38 0 0 1-1.76 1.99c.42 3.04 2.34 17.04 2.78 21.37.51 4.96-.36 6.33-3.23 7.93-1.7.94-9.83 1.85-16.8 2.48l.18.3.81 1.47c2.2 4.22 1.4 7.17.34 8.9a9.4 9.4 0 0 1-7.27 4.23h-14.2a9.4 9.4 0 0 1-7.27-4.23c-1.06-1.73-1.85-4.68.34-8.9a40.04 40.04 0 0 1 .99-1.77c-6.97-.63-15.1-1.54-16.8-2.48-2.87-1.6-3.74-2.97-3.23-7.93.44-4.33 2.36-18.33 2.78-21.37a3.38 3.38 0 0 1-1.76-1.99h-2.23v1.94a1.6 1.6 0 0 1-3.2 0v-5.7a1.6 1.6 0 0 1 3.2 0v1.72h2.2a3.4 3.4 0 0 1 3.24-2.42h3.4a3.4 3.4 0 0 1 3.25 2.42h2.4v-1.72a1.6 1.6 0 0 1 3.2 0v5.7a1.6 1.6 0 0 1-3.2 0v-1.94h-2.43c-.3.85-.9 1.56-1.71 1.96.1 2.4.53 12.49.8 16.42.15 2.24-.14 3.93-.48 5.1.48-.24 1-.5 1.48-.71a12.23 12.23 0 0 1 8.64-.59 6.7 6.7 0 0 1-.68-2.94l-.02-.62c-.02-.38-.04-.74.04-1.15-2.55-.73-3.9-3.48-3.9-5.97 0-2.39 1.5-4.54 3.7-5.38v-2.41a.73.73 0 0 1-.1-.24A6.55 6.55 0 0 1 602 723a7.27 7.27 0 0 1 6.48-3.93 7.26 7.26 0 0 1 6.49 3.96 6.54 6.54 0 0 1 8.17 6.22c0 .14-.03.27-.1.38v3.7c2.1.9 3.5 2.98 3.5 5.3 0 2.49-1.36 5.24-3.9 5.97.07.4.05.77.03 1.15l-.02.62a6.7 6.7 0 0 1-.68 2.94c2.69-.84 5.86-.7 8.64.58.48.22 1 .48 1.48.72a14.44 14.44 0 0 1-.47-5.1c.26-3.93.7-14.01.8-16.42a3.42 3.42 0 0 1-1.71-1.96h-2.45v1.94a1.6 1.6 0 0 1-3.2 0v-5.7a1.6 1.6 0 0 1 3.2 0v1.72h2.4a3.4 3.4 0 0 1 3.25-2.42h3.4a3.4 3.4 0 0 1 3.25 2.42h2.2v-1.72c0-.88.72-1.6 1.6-1.6zm-26.1 11.52c.1-.06.24-.1.37-.1h3.14V730h-12.5c0 .02 0 .03-.02.04-.9 1.05-2.12 2.49-4.6 2.49-2.53 0-3.71-1.4-4.57-2.44l-.07-.08h-4.52v.46c0 .14-.04.27-.1.38v2.35h2.93c.13 0 .26.04.37.1zm-19.2 6.42c0 3.36 1.8 6.49 4.73 8.17.11.06.2.16.26.26a9.53 9.53 0 0 0 8.87 0c.06-.1.15-.2.26-.26a9.46 9.46 0 0 0 4.74-8.17v-5.16h-18.87zm9.43 10.78c-1.5 0-2.99-.31-4.36-.91v2.95a4.35 4.35 0 0 0 8.7 0v-2.95c-1.36.6-2.84.91-4.34.91zm16.58-11.86a4.28 4.28 0 0 0-2.69-3.98h-3v5.06c0 3.73-1.94 7.22-5.09 9.2v1.92l3.61.41a5.28 5.28 0 0 0 3.28-4.87l.02-.69c.03-.57.05-.86-.18-1.3a.73.73 0 0 1 .58-1.07c2.26-.2 3.47-2.56 3.47-4.68zm-24.6-14.34a5.09 5.09 0 0 0-5.01 4.23h4.89c.2 0 .41.1.55.25l.3.36c.8.94 1.6 1.91 3.45 1.91 1.81 0 2.66-1 3.5-1.97l.24-.3a.73.73 0 0 1 .56-.25h12.66a5.1 5.1 0 0 0-6.78-3.92.73.73 0 0 1-.94-.41 5.8 5.8 0 0 0-5.41-3.65 5.81 5.81 0 0 0-5.4 3.62.73.73 0 0 1-.92.41 5.07 5.07 0 0 0-1.7-.28zm-8.58 14.34c0 2.11 1.22 4.47 3.47 4.68a.73.73 0 0 1 .58 1.06c-.23.45-.21.73-.18 1.3l.02.7a5.28 5.28 0 0 0 3.28 4.86l3.6-.4v-1.92a10.92 10.92 0 0 1-5.07-9.2v-5.06h-2.83l-.14-.01a4.3 4.3 0 0 0-2.73 3.99zm-12.54 18.5c1.16.65 7.45 1.53 16.85 2.37l.02-.05a18.76 18.76 0 0 0 .38-.84l.02-.03a18.59 18.59 0 0 0 1.28-5.87c-2.45-2.55-7.18-3.21-10.94-1.48-1.38.63-3.22 1.59-3.23 1.6a.73.73 0 0 1-.94-1.08c.01-.02 1.37-2 1.09-6.14-.3-4.47-.81-16.85-.82-16.97a.73.73 0 0 1 .53-.74 1.92 1.92 0 0 0-.54-3.76h-3.4a1.92 1.92 0 0 0-.47 3.78c.36.1.6.44.54.81-.02.17-2.36 17.1-2.85 21.9-.48 4.66.36 5.32 2.48 6.5zm42.26 13.68c1.25-2.05 1.12-4.56-.4-7.46-.24-.49-.51-.96-.78-1.42-.24-.42-.49-.86-.73-1.32l-.01-.01-.16-.31-.02-.04-.12-.24-.07-.14a12.43 12.43 0 0 1-.23-.5 15.8 15.8 0 0 1-1.07-3.45l-.02-.14a21.9 21.9 0 0 1-.08-.43l-.02-.1a24.9 24.9 0 0 1-.3-2.57l-3.3-.37v.23a5.82 5.82 0 0 1-11.63 0v-.23l-3.3.37c-.04.7-.12 1.34-.2 1.93l-.01.07-.09.56-.02.11-.08.42-.02.15a17.8 17.8 0 0 1-1.07 3.45l-.02.03a16.16 16.16 0 0 1-.21.47l-.07.14-.12.24-.02.04-.16.3v.02l-.74 1.32c-.26.46-.53.93-.79 1.42-1.5 2.9-1.64 5.41-.4 7.46a7.92 7.92 0 0 0 6.03 3.52h14.2a7.92 7.92 0 0 0 6.03-3.52zm16.17-42.89a1.92 1.92 0 0 0-.46-3.78h-3.4a1.92 1.92 0 0 0-.55 3.76c.32.1.54.4.53.74 0 .12-.52 12.5-.82 16.97-.28 4.2 1.07 6.12 1.09 6.14a.73.73 0 0 1-.94 1.08c-.01-.01-1.85-.97-3.23-1.6-3.76-1.73-8.49-1.07-10.94 1.48.22 2.72.7 4.5 1.28 5.87l.02.03c.08.2.16.39.25.57l.04.08.1.2.01.04c9.4-.84 15.69-1.72 16.85-2.36 2.12-1.19 2.96-1.85 2.48-6.5-.49-4.81-2.83-21.74-2.85-21.9a.73.73 0 0 1 .54-.82z"/><clipPath id="4rife"><use xlink:href="#4rifa"/></clipPath></defs><g><g transform="translate(-571 -719)"><g><use fill="#fff" xlink:href="#4rifb"/></g><g><use fill="#fff" xlink:href="#4rifc"/></g><g><use fill="#fff" xlink:href="#4rifd"/></g><g><g/><g clip-path="url(#4rife)"><use fill="#fff" xlink:href="#4riff"/></g></g></g></g></svg>