<svg xmlns="http://www.w3.org/2000/svg" xmlns:xlink="http://www.w3.org/1999/xlink" width="52" height="55" viewBox="0 0 52 55"><defs><path id="ucn5a" d="M411.66 740.74l-24.7-20.52a.94.94 0 0 0-1.2-.01l-25.4 20.52a.95.95 0 0 0 .58 1.7h3.69v31.62c0 .52.42.95.94.95h40.86c.52 0 .94-.43.94-.95v-31.62h3.69a.95.95 0 0 0 .6-1.68zm-5.23-.21a.95.95 0 0 0-.95.95v31.62h-38.96v-31.62a.95.95 0 0 0-.95-.95h-1.94l22.72-18.35 22.08 18.35z"/><path id="ucn5b" d="M380.2 750.3h11.6v-3.4c0-.5.42-.9.94-.9h3.66c.52 0 .93.4.93.9v1.98h2.74c.51 0 .93.4.93.9v6.43c0 .5-.42.91-.93.91h-2.74v1.97c0 .5-.41.91-.93.91h-3.66a.92.92 0 0 1-.94-.9v-3.4h-11.6v3.4c0 .5-.42.9-.94.9h-3.66a.92.92 0 0 1-.93-.9v-1.98h-2.74a.92.92 0 0 1-.93-.9v-6.43c0-.5.42-.91.93-.91h2.74v-1.97c0-.5.41-.91.93-.91h3.66c.52 0 .94.4.94.9zm-3.67 7.88h1.8v-10.36h-1.8zm3.67-4.3h11.6v-1.76h-11.6zm17.13 1.42h1.8v-4.6h-1.8zm-3.66 2.88h1.8v-10.36h-1.8z"/></defs><g><g transform="translate(-360 -720)"><g><use fill="#fffffe" xlink:href="#ucn5a"/></g><g><use fill="#fffffe" xlink:href="#ucn5b"/></g></g></g></svg>