<svg xmlns="http://www.w3.org/2000/svg" xmlns:xlink="http://www.w3.org/1999/xlink" width="38" height="35" viewBox="0 0 38 35"><defs><path id="9lvba" d="M1217.9 1988c-.31 0-.62-.11-.87-.33l-12.36-11.17a17.13 17.13 0 0 1-5.28-8.77 12.62 12.62 0 0 1 2.9-11.5 9.93 9.93 0 0 1 7.32-3.23c3.35 0 6.37 1.64 8.3 4.4 1.96-2.73 5.1-4.4 8.48-4.4a9.92 9.92 0 0 1 7.32 3.24 12.62 12.62 0 0 1 2.9 11.5 17.13 17.13 0 0 1-5.28 8.76l-12.58 11.18c-.25.21-.55.32-.86.32m-16.3-23.93s-.17 1.1.3 3.08a14.6 14.6 0 0 0 4.5 7.46l11.51 10.4 11.72-10.4a14.59 14.59 0 0 0 4.5-7.46 8.65 8.65 0 0 0 .27-3.2c-.5-5.52-4.4-8.4-8-8.4a8 8 0 0 0-7.32 4.95 1.28 1.28 0 1 1-2.36 0c-1.29-3.05-4.01-4.95-7.1-4.95-3.6 0-7.5 2.88-8 8.4 0 .04 0 .08-.02.12"/></defs><g><g clip-path="url(#clip-06991AC0-F198-4A00-939C-957514E9946F)" transform="translate(-1199 -1953)"><use fill="#fff" xlink:href="#9lvba"/></g></g></svg>