<svg xmlns="http://www.w3.org/2000/svg" xmlns:xlink="http://www.w3.org/1999/xlink" width="48" height="81" viewBox="0 0 48 81"><defs><path id="3q85a" d="M902.81 1975.07a8.2 8.2 0 0 1 8.15 8.23v26.31c0 4.15-3.06 7.6-7.02 8.15l-.12 2.16c-.03.6-.52 1.08-1.13 1.08h-31.18c-.6 0-1.09-.47-1.13-1.07l-.13-2.14a8.21 8.21 0 0 1-7.25-8.18v-26.3a8.2 8.2 0 0 1 10.78-7.8c.17-.11.38-.18.61-.18h4.6a12.92 12.92 0 0 1-4.78-10.05v-.43a2.64 2.64 0 0 1-3.34-2.55v-2.35a2.64 2.64 0 0 1 3.34-2.55V1953c0-7.11 5.73-12.9 12.77-12.9 7.05 0 12.78 5.79 12.78 12.9v4.41a2.64 2.64 0 0 1 3.34 2.55v2.35a2.64 2.64 0 0 1-3.34 2.55v.43c0 4.06-1.87 7.68-4.78 10.05h4.6c.22 0 .43.07.6.18.83-.28 1.71-.44 2.63-.44zm-2.36.68zm.08.12zm-18.14 4.18a4.62 4.62 0 0 0 4.6 4.64c2.53 0 4.6-2.08 4.6-4.64v-2.44h-.86a12.62 12.62 0 0 1-7.5 0h-.84zm4.95-24.68c-4.38 0-7.7.94-9.25 1.92h18.5c-1.55-.98-4.88-1.92-9.25-1.92zm13.14 3.38c-.27 0-.52.1-.72.24v4.26a1.2 1.2 0 0 0 1.91-.96v-2.34c0-.66-.54-1.2-1.2-1.2zm-3.1-5.76c0-5.55-4.3-10.1-9.7-10.46v10.76c3.72.04 7.42.74 9.7 2.06zm-10.9-10.48c-5.5.27-9.88 4.87-9.88 10.49v2.83c2.05-1.56 5.91-2.42 9.87-2.52zm-12.99 20.98c.27 0 .52-.1.72-.24v-4.26a1.2 1.2 0 0 0-1.91.96v2.34c0 .66.53 1.2 1.2 1.2zm3.1 1.8c0 5.77 4.66 10.48 10.39 10.48 5.72 0 10.38-4.7 10.38-10.49v-5.7H876.6zm-2.96 10.34zm.05-.04zm-.21.22zm-.19.46zm.08-.27zm-.07.22zm-3.45 15.15c1.28 0 3.42-.6 3.42-4.66v-8.41a5.42 5.42 0 0 0-7.5 5v26.31a5.43 5.43 0 0 0 4.32 5.33l-1.37-22.36a1.13 1.13 0 0 1 1.13-1.21zm.29 24.38l-.05-.81zm32.81-22.21c-2.8-.54-4.5-3.06-4.5-6.83v-9.1h-4.47v2.44a7.03 7.03 0 0 1-6.99 7.05 7.03 7.03 0 0 1-6.98-7.05v-2.44h-4.48v9.1c0 3.77-1.69 6.28-4.48 6.83l1.54 25.18h29.04zm5.26-10.24a5.42 5.42 0 0 0-7.5-5v8.4c0 1.75.45 4.67 3.43 4.67.3 0 .6.12.82.35.21.23.32.53.3.85l-1.16 22.32a5.44 5.44 0 0 0 4.1-5.28z"/></defs><g><g clip-path="url(#clip-EEB0FAC4-31BC-4991-A3D0-5D7DBD108491)" transform="translate(-863 -1940)"><use fill="#fff" xlink:href="#3q85a"/></g></g></svg>