<svg xmlns="http://www.w3.org/2000/svg" xmlns:xlink="http://www.w3.org/1999/xlink" width="33" height="48" viewBox="0 0 33 48"><defs><path id="jeuaa" d="M553.55 1994h-.03a4.9 4.9 0 0 1-4.2-2.4c-3.76-6.26-9.24-17.29-11.43-23.74a16.41 16.41 0 0 1 2.21-14.95 16.28 16.28 0 0 1 13.4-6.91c5.45 0 10.35 2.42 13.43 6.64 3.1 4.26 3.9 9.8 2.19 15.2-2.16 6.81-7.58 17.66-11.37 23.8a4.9 4.9 0 0 1-4.2 2.36m-.05-45.21c-4.47 0-8.53 2.09-11.14 5.74a13.64 13.64 0 0 0-1.84 12.43c2.1 6.19 7.57 17.19 11.18 23.2.4.66 1.07 1.04 1.84 1.04h.01c.77 0 1.44-.37 1.84-1.03 3.7-6 8.99-16.57 11.08-23.18 1.44-4.54.79-9.17-1.79-12.7a13.62 13.62 0 0 0-11.18-5.5m.01 20.65a6.47 6.47 0 0 1 0-12.95 6.47 6.47 0 0 1 0 12.95m0-10.16a3.68 3.68 0 1 0 .01 7.36 3.68 3.68 0 0 0-.01-7.36"/></defs><g><g clip-path="url(#clip-EB981378-8046-4DA2-A38E-0249704D0DE6)" transform="translate(-537 -1946)"><use fill="#fff" xlink:href="#jeuaa"/></g></g></svg>