<svg xmlns="http://www.w3.org/2000/svg" xmlns:xlink="http://www.w3.org/1999/xlink" width="67" height="64" viewBox="0 0 67 64"><defs><path id="jckwa" d="M250.76 1962.97c.69 0 1.24.56 1.24 1.24v7.08c0 .69-.55 1.24-1.24 1.24h-3.88v.29c0 1.9-1.34 3.6-3.22 3.93-.75.14-1.47.04-2.1-.2v3.39a3.9 3.9 0 0 1-4.06 3.89 3.96 3.96 0 0 1-3.75-3.99v-7.31h-1.35v4.07a7.46 7.46 0 0 1-6.16 7.33l1.01 29.77c.03.6-.38 1.18-1.08 1.3h-13.32c-.7-.12-1.12-.7-1.09-1.3l1.01-29.75a9.5 9.5 0 0 1-7.9-7.09 1.23 1.23 0 0 1-.27-.78v-3.55h-1.35v6.73a3.9 3.9 0 0 1-4.05 3.9 3.96 3.96 0 0 1-3.76-4v-3.3c-.63.26-1.35.35-2.1.22a3.97 3.97 0 0 1-3.22-3.94v-.28h-3.88c-.69 0-1.24-.56-1.24-1.24v-7.08c0-.69.55-1.24 1.24-1.24h3.88v-.29c0-1.9 1.34-3.6 3.22-3.93a3.87 3.87 0 0 1 2.1.2v-3.39a3.9 3.9 0 0 1 4.06-3.89 3.96 3.96 0 0 1 3.75 3.99v7.98h1.35v-4.86c0-.69.55-1.24 1.24-1.24h25.32c.69 0 1.24.55 1.24 1.24v4.86h1.35v-7.4a3.9 3.9 0 0 1 4.05-3.9 3.96 3.96 0 0 1 3.76 4v3.3a3.87 3.87 0 0 1 2.1-.22 3.97 3.97 0 0 1 3.22 3.94v.28zm-18.36.54zm-.04.59zm.02-.11zm-.1.55zm.01-.07zm-.15.53l-.02.04.02-.04zm.01-.04zm-6-1.45l-.02.28a1.9 1.9 0 0 0 3.78-.28v-4.17h-3.77zm-6.3 0a1.91 1.91 0 0 0 3.79.28l-.01-.28v-4.17h-3.79zm-6.48 0a1.91 1.91 0 0 0 3.82 0v-4.17h-3.82zm-6.3 0a1.91 1.91 0 0 0 3.83 0v-4.17h-3.82zm-2.45.38zm.23 1.07zm.01.04l.02.04-.02-.04zm-.15-.53zm.03.14zm-.11-.62zm.02.15zm-17.17 5.24h2.64v-4.6h-2.64zm6.54 4.29c.78 0 1.41-.64 1.41-1.42v-10.34a1.42 1.42 0 0 0-2.83 0v10.34c0 .78.63 1.42 1.42 1.42zm6.75-18.78a1.42 1.42 0 0 0-2.85 0v24.37a1.42 1.42 0 0 0 2.85 0zm29.14 17.64h-8.6a4.36 4.36 0 0 1-4.36 4.79H210.64v-2.48H216.95c1.1 0 1.98-.92 1.9-2.03a1.95 1.95 0 0 0-1.97-1.78h-9.8v3.56a7 7 0 0 0 6.96 6.98 1.24 1.24 0 0 1 1.27 1.3l-1 29.67h10.4l-1.01-29.67a1.24 1.24 0 0 1 1.27-1.3 4.98 4.98 0 0 0 4.94-4.97zm-9.46-2.23l.02.04-.02-.04zm.66 1.25l-.05-.13.05.13zm.1.38zm12.53-1.87v-4.61h-1.8a4.39 4.39 0 0 1-7.06 1.12 4.38 4.38 0 0 1-6.37-.11 4.38 4.38 0 0 1-6.38.1 4.38 4.38 0 0 1-7.07-1.11h-1.81v4.6h1.35v-.25c0-.68.55-1.24 1.24-1.24h11.1c1.32 0 2.5.58 3.3 1.5zm-28.68-4.61zm34.02-9.88a1.42 1.42 0 0 0-2.85 0v24.37a1.42 1.42 0 0 0 2.85 0zm5.31 7.01a1.42 1.42 0 0 0-2.83 0v10.34a1.42 1.42 0 0 0 2.83 0zm2.5 7.48h2.63v-4.61h-2.64z"/></defs><g><g transform="translate(-185 -1951)"><use fill="#fff" xlink:href="#jckwa"/></g></g></svg>